HIERARCHY
ROOT Hips
{
	OFFSET	0.00	0.00	0.00
	CHANNELS 6 Xposition Yposition Zposition Zrotation Xrotation Yrotation
	JOINT LeftUpperLeg
	{
		OFFSET	 0.100000	-0.066564	-0.000554
		CHANNELS 3 Zrotation Xrotation Yrotation
		JOINT LeftLowerLeg
		{
			OFFSET	 0.002447	-0.463436	-0.005172
			CHANNELS 3 Zrotation Xrotation Yrotation
			JOINT LeftFoot
			{
				OFFSET	-0.002447	-0.420480	-0.020576
				CHANNELS 3 Zrotation Xrotation Yrotation
				JOINT LeftToes
				{
					OFFSET	 0.003734	-0.104922	 0.126407
					CHANNELS 3 Zrotation Xrotation Yrotation
					End Site
					{
						OFFSET	 0.000000	 0.000000	 0.059955
					}
				}
			}
		}
	}
	JOINT RightUpperLeg
	{
		OFFSET	-0.100000	-0.066564	-0.000554
		CHANNELS 3 Zrotation Xrotation Yrotation
		JOINT RightLowerLeg
		{
			OFFSET	-0.002447	-0.463436	-0.005146
			CHANNELS 3 Zrotation Xrotation Yrotation
			JOINT RightFoot
			{
				OFFSET	 0.002447	-0.420479	-0.020602
				CHANNELS 3 Zrotation Xrotation Yrotation
				JOINT RightToes
				{
					OFFSET	-0.003734	-0.104922	 0.126407
					CHANNELS 3 Zrotation Xrotation Yrotation
					End Site
					{
						OFFSET	-0.000000	 0.000000	 0.059955
					}
				}
			}
		}
	}
	JOINT Spine
	{
		OFFSET	 0.000000	 0.099235	-0.012273
		CHANNELS 3 Zrotation Xrotation Yrotation
		JOINT Chest
		{
			OFFSET	-0.000001	 0.116455	-0.014223
			CHANNELS 3 Zrotation Xrotation Yrotation
			JOINT UpperChest
			{
				OFFSET	 0.000001	 0.133602	-0.016265
				CHANNELS 3 Zrotation Xrotation Yrotation
				JOINT LeftShoulder
				{
					OFFSET	 0.061058	 0.091105	 0.007056
					CHANNELS 3 Zrotation Xrotation Yrotation
					JOINT LeftUpperArm
					{
						OFFSET	 0.133942	-0.002659	-0.026009
						CHANNELS 3 Zrotation Xrotation Yrotation
						JOINT LeftLowerArm
						{
							OFFSET	 0.274047	 0.000000	 0.000000
							CHANNELS 3 Zrotation Xrotation Yrotation
							JOINT LeftHand
							{
								OFFSET	 0.276145	 0.000000	 0.000000
								CHANNELS 3 Zrotation Xrotation Yrotation
								End Site
								{
									OFFSET	 0.165687	 0.000000	 0.000000
								}
							}
						}
					}
				}
				JOINT Neck
				{
					OFFSET	 0.000000	 0.150325	 0.007929
					CHANNELS 3 Zrotation Xrotation Yrotation
					JOINT Head
					{
						OFFSET	 0.000000	 0.103218	 0.031424
						CHANNELS 3 Zrotation Xrotation Yrotation
						End Site
						{
							OFFSET	 0.000000	 0.061931	 0.018855
						}
					}
				}
				JOINT RightShoulder
				{
					OFFSET	-0.061057	 0.091105	 0.007056
					CHANNELS 3 Zrotation Xrotation Yrotation
					JOINT RightUpperArm
					{
						OFFSET	-0.133943	-0.002660	-0.026009
						CHANNELS 3 Zrotation Xrotation Yrotation
						JOINT RightLowerArm
						{
							OFFSET	-0.274047	 0.000000	 0.000000
							CHANNELS 3 Zrotation Xrotation Yrotation
							JOINT RightHand
							{
								OFFSET	-0.276145	 0.000000	 0.000000
								CHANNELS 3 Zrotation Xrotation Yrotation
								End Site
								{
									OFFSET	-0.165687	 0.000000	 0.000000
								}
							}
						}
					}
				}
			}
		}
	}
}
MOTION
Frames:    8
Frame Time: 0.03333334
-0.028610	 0.987200	-0.125430	 15.919480	 10.178420	-57.317670	 20.752810	-40.186520	 45.139270	-0.076860	 47.016090	 0.033157	 0.273544	-17.086970	 3.189485	 0.000367	-1.190631	 0.087233	-26.054850	-14.822240	-16.386970	-0.000259	 0.080321	-0.000631	 20.318480	 1.518478	-1.927166	-0.000370	 0.326381	-0.000428	 2.682403	 5.335681	 2.872768	-0.000000	 0.000000	 0.000000	 5.142165	 10.829990	 5.544080	 9.772983	-17.084380	-20.468920	-38.421200	-31.133750	 11.839440	-44.191180	 28.356640	-56.943630	 62.838420	-10.173040	-5.835991	 6.702444	-5.572632	 10.359650	 6.574219	-5.951520	 10.597970	-6.598624	 3.157983	-2.793810	 66.387750	 0.574742	 9.887696	 23.222800	 19.627010	 94.874650	-31.276570	 16.058600	 19.185100
-0.024410	 0.984920	-0.126720	 15.402560	 10.783810	-56.317570	 21.218260	-41.088350	 44.650660	 0.095823	 47.859390	-0.042444	 0.256197	-17.344160	 3.125678	 0.000052	-0.908552	 0.057385	-25.619670	-14.494450	-15.803590	-0.000054	 0.080406	 0.000330	 20.291580	 1.297869	-3.279055	 0.000356	 0.323898	 0.000154	 2.732050	 5.754250	 2.422114	-0.000000	 0.000000	 0.000000	 5.276078	 11.652550	 4.612593	 11.044810	-18.004350	-20.859950	-38.843100	-31.428400	 6.739441	-40.542690	 21.203760	-52.497540	 63.196530	-12.748910	-8.410096	 7.383862	-5.895569	 10.018870	 7.291137	-6.580505	 11.026420	-6.083558	 3.116634	-2.677322	 65.913100	 0.142853	 10.595130	 22.900320	 19.164990	 94.216870	-31.295240	 16.420560	 19.451220
-0.021940	 0.982450	-0.128370	 14.914850	 11.219830	-55.445660	 21.609010	-41.747460	 43.795060	-0.171388	 48.548820	 0.077461	 0.406740	-17.489970	 3.333600	 0.000189	-1.110450	 0.050341	-25.209510	-14.119220	-15.322680	 0.000307	 0.074399	 0.000426	 19.993640	 1.077525	-4.370186	-0.000004	 0.318769	 0.000011	 2.712791	 5.951165	 2.198900	-0.000000	 0.000000	 0.000000	 5.253432	 12.037060	 4.157535	 12.506600	-19.177760	-20.787120	-39.950650	-32.021620	 1.122150	-34.087240	 13.868930	-46.954500	 53.085350	-9.341033	-5.795320	 7.981910	-6.648528	 10.535930	 8.036477	-6.965106	 11.047830	-5.846649	 2.716563	-1.905654	 65.544650	-0.040609	 11.296280	 22.389630	 18.677630	 93.828270	-31.755660	 16.773160	 19.654650
-0.020500	 0.980310	-0.130080	 14.525330	 11.431070	-54.685630	 21.867890	-42.163570	 43.649780	 0.079421	 49.134070	-0.035998	 0.065195	-17.712850	 2.864164	-0.000594	-0.931867	 0.015100	-25.008060	-13.911820	-15.016660	 0.000202	 0.453785	 0.001041	 19.456860	 0.759140	-5.079132	 0.000706	 0.310562	-0.000894	 2.641530	 6.067053	 1.879105	-0.000000	 0.000000	 0.000000	 5.141172	 12.253780	 3.514727	 13.973170	-19.947580	-20.978920	-41.439190	-32.921980	-4.379927	-26.222410	 7.864801	-39.990590	 46.034630	-11.481300	-6.793423	 8.514388	-6.976376	 10.485530	 8.696141	-7.098207	 11.182080	-5.713349	 2.597788	-1.367679	 65.336510	 0.341383	 11.759630	 21.885300	 18.004070	 93.788060	-32.096190	 17.207680	 19.330520
-0.020550	 0.978400	-0.133400	 14.012850	 11.812770	-53.709770	 22.411430	-42.555480	 43.368970	 0.041986	 49.605330	-0.019399	-0.043799	-17.732360	 2.427049	 0.000635	-0.989836	 0.001551	-24.966460	-15.449170	-14.217620	 0.014508	 4.562761	 0.003023	 18.675550	-1.341874	-5.943392	 0.000671	 0.298888	 0.000344	 2.659107	 6.062899	 1.556569	-0.000000	 0.000000	 0.000000	 5.210426	 12.228210	 2.857065	 16.116370	-20.377720	-20.796400	-43.651060	-35.226650	-10.064140	-19.600520	 5.695401	-30.541950	 42.087680	-12.657540	-10.037640	 9.200128	-7.095736	 10.342100	 9.212251	-6.962972	 10.974980	-5.564052	 2.328209	-0.998585	 65.481160	 1.394089	 12.520760	 21.363610	 17.134280	 93.472240	-32.163580	 18.023960	 19.019290
-0.021470	 0.978220	-0.136300	 13.709840	 12.061840	-53.336190	 22.813660	-42.662650	 43.269390	 0.156532	 49.640400	-0.072240	-0.174415	-17.653520	 2.239776	 0.000042	-0.840631	 0.001233	-24.881800	-17.033230	-13.940450	-0.012225	 8.124424	 0.007424	 18.212410	-3.179223	-5.918213	 0.000053	 0.292714	-0.000739	 2.714927	 6.115401	 1.358694	-0.000000	 0.000000	 0.000000	 5.345034	 12.328210	 2.448196	 16.914460	-20.511490	-20.275650	-44.282700	-36.636800	-10.296900	-20.441840	 7.282639	-29.771750	 45.609140	-11.065740	-10.283650	 9.308603	-6.769254	 10.454210	 9.218918	-6.799102	 10.847260	-5.469660	 2.095970	-0.507558	 65.654010	 1.583356	 12.886630	 20.911180	 17.473490	 93.416310	-32.477730	 18.711340	 19.151200
-0.023050	 0.978730	-0.138660	 13.555580	 11.908820	-53.281930	 22.725180	-42.388040	 42.804160	-0.007362	 49.341790	 0.002325	-0.293056	-17.471270	 2.460759	 0.000007	-0.829173	 0.002976	-24.812600	-17.459820	-13.000830	 0.021274	 9.329981	 0.008010	 18.054940	-4.072072	-6.520515	-0.000260	 0.293360	-0.000290	 2.691763	 6.192317	 1.320166	-0.000000	 0.000000	 0.000000	 5.301620	 12.479140	 2.373222	 16.818900	-20.079720	-19.371290	-44.989980	-34.182740	-8.902556	-21.580960	 8.497622	-33.786920	 43.999080	-13.243910	-8.516788	 8.947770	-6.429825	 10.660160	 8.996221	-6.567493	 10.768210	-5.534381	 2.113968	-0.013649	 65.751620	 1.532694	 13.412730	 21.183870	 17.057100	 92.883220	-32.056160	 19.252460	 19.774630
-0.025420	 0.980550	-0.141310	 13.827230	 11.232410	-53.618790	 21.934080	-41.788850	 42.387550	-0.016084	 48.510470	 0.007423	-0.790503	-17.016030	 2.647960	 0.000434	-0.756169	 0.000175	-25.158090	-17.691090	-12.351620	-0.010158	 9.801452	 0.011035	 17.916020	-4.562573	-6.855531	-0.000434	 0.294408	 0.000601	 2.539724	 6.278893	 1.666969	-0.000000	 0.000000	 0.000000	 4.956232	 12.669150	 3.087762	 15.723440	-18.956300	-18.388000	-45.663960	-31.309100	-5.543987	-26.245700	 12.484270	-41.585990	 40.734570	-9.375906	-11.121950	 8.297921	-6.007319	 10.810650	 8.560563	-6.304427	 10.203520	-5.969979	 2.339750	 0.662935	 66.158280	 1.395348	 13.291030	 21.513180	 17.303780	 93.201580	-31.679890	 18.367110	 19.148600
